<svg 
t="1688998665833" 
class="icon" 
viewBox="0 0 1024 1024" 
version="1.1" 
xmlns="http://www.w3.org/2000/svg" 
p-id="11135" width="2000" height="2000">
<path d="M672 64l224 256v540.8c0 54.4-41.6 99.2-96 99.2H224c-54.4 0-96-44.8-96-99.2V163.2C128 108.8 169.6 64 224 64h448z" fill="#FA4E4E" p-id="11136">
</path>
<path d="M662.4 678.4c-32-3.2-60.8-12.8-86.4-35.2-48 9.6-92.8 25.6-137.6 44.8-35.2 64-70.4 96-99.2 96-6.4 0-12.8 0-16-3.2-12.8-6.4-19.2-19.2-19.2-32 0-9.6 3.2-38.4 112-86.4 25.6-44.8 44.8-92.8 60.8-144-12.8-28.8-44.8-96-22.4-131.2 6.4-12.8 22.4-19.2 35.2-19.2 12.8 0 22.4 6.4 28.8 16 16 22.4 12.8 64-6.4 131.2 19.2 35.2 41.6 67.2 70.4 92.8 25.6-3.2 48-9.6 73.6-9.6 54.4 0 60.8 25.6 60.8 41.6 3.2 38.4-35.2 38.4-54.4 38.4z m-323.2 73.6h3.2c16-6.4 28.8-16 38.4-32-19.2 3.2-32 16-41.6 32z m153.6-348.8h-3.2-3.2c-3.2 19.2 0 41.6 6.4 57.6 6.4-16 6.4-38.4 0-57.6z m6.4 166.4c-12.8 28.8-25.6 54.4-38.4 80h3.2v3.2c25.6-9.6 51.2-16 80-22.4h3.2c-19.2-19.2-35.2-38.4-48-60.8z m156.8 64c-9.6 0-19.2 0-28.8 3.2 12.8 6.4 22.4 9.6 35.2 9.6 9.6 0 16 0 22.4-3.2 0-6.4-3.2-9.6-28.8-9.6z" fill="#FFFFFF" p-id="11137">
<!-- <animateMotion path="M 0 -50 L 40 60 Z" dur="3s" repeatCount="indefinite" /> -->
    <animateTransform attributeType="XML" attributeName="transform" begin="0s" dur="5s" type="rotate" from="0 500 580" to="360 500 580" repeatCount="indefinite" />
</path>
<path d="M672 217.6V64l224 256h-134.4C713.6 320 672 275.2 672 217.6z" fill="#FDB8B8" p-id="11138">

</path>
</svg>